<svg width="156" height="207" viewBox="0 0 156 207" fill="none" xmlns="http://www.w3.org/2000/svg">
<path d="M22.4011 123.268L21.8131 121.504H17.9071L17.3191 123.268H15.2331L18.6631 113.468H21.0571L24.5011 123.268H22.4011ZM18.5231 119.698H21.2111L19.8671 115.694L18.5231 119.698ZM30.4833 113.468H32.2893V123.268H30.4833V122.442C29.9513 123.123 29.1953 123.464 28.2153 123.464C27.2726 123.464 26.4653 123.109 25.7933 122.4C25.1306 121.681 24.7993 120.804 24.7993 119.768C24.7993 118.732 25.1306 117.859 25.7933 117.15C26.4653 116.431 27.2726 116.072 28.2153 116.072C29.1953 116.072 29.9513 116.412 30.4833 117.094V113.468ZM27.1513 121.196C27.5246 121.56 27.9913 121.742 28.5513 121.742C29.1113 121.742 29.5733 121.56 29.9373 121.196C30.3013 120.822 30.4833 120.346 30.4833 119.768C30.4833 119.189 30.3013 118.718 29.9373 118.354C29.5733 117.98 29.1113 117.794 28.5513 117.794C27.9913 117.794 27.5246 117.98 27.1513 118.354C26.7873 118.718 26.6053 119.189 26.6053 119.768C26.6053 120.346 26.7873 120.822 27.1513 121.196ZM39.9049 122.4C39.1863 123.109 38.3089 123.464 37.2729 123.464C36.2369 123.464 35.3596 123.109 34.6409 122.4C33.9316 121.681 33.5769 120.804 33.5769 119.768C33.5769 118.732 33.9316 117.859 34.6409 117.15C35.3596 116.431 36.2369 116.072 37.2729 116.072C38.3089 116.072 39.1863 116.431 39.9049 117.15C40.6236 117.859 40.9829 118.732 40.9829 119.768C40.9829 120.804 40.6236 121.681 39.9049 122.4ZM35.9149 121.154C36.2789 121.518 36.7316 121.7 37.2729 121.7C37.8143 121.7 38.2669 121.518 38.6309 121.154C38.9949 120.79 39.1769 120.328 39.1769 119.768C39.1769 119.208 38.9949 118.746 38.6309 118.382C38.2669 118.018 37.8143 117.836 37.2729 117.836C36.7316 117.836 36.2789 118.018 35.9149 118.382C35.5603 118.746 35.3829 119.208 35.3829 119.768C35.3829 120.328 35.5603 120.79 35.9149 121.154ZM46.3274 116.072C47.2701 116.072 48.0728 116.431 48.7354 117.15C49.4074 117.859 49.7434 118.732 49.7434 119.768C49.7434 120.804 49.4074 121.681 48.7354 122.4C48.0728 123.109 47.2701 123.464 46.3274 123.464C45.3474 123.464 44.5914 123.123 44.0594 122.442V123.268H42.2534V113.468H44.0594V117.094C44.5914 116.412 45.3474 116.072 46.3274 116.072ZM44.6054 121.196C44.9694 121.56 45.4314 121.742 45.9914 121.742C46.5514 121.742 47.0134 121.56 47.3774 121.196C47.7508 120.822 47.9374 120.346 47.9374 119.768C47.9374 119.189 47.7508 118.718 47.3774 118.354C47.0134 117.98 46.5514 117.794 45.9914 117.794C45.4314 117.794 44.9694 117.98 44.6054 118.354C44.2414 118.718 44.0594 119.189 44.0594 119.768C44.0594 120.346 44.2414 120.822 44.6054 121.196ZM52.5431 120.51C52.7858 121.387 53.4438 121.826 54.5171 121.826C55.2078 121.826 55.7304 121.592 56.0851 121.126L57.5411 121.966C56.8504 122.964 55.8331 123.464 54.4891 123.464C53.3318 123.464 52.4031 123.114 51.7031 122.414C51.0031 121.714 50.6531 120.832 50.6531 119.768C50.6531 118.713 50.9984 117.836 51.6891 117.136C52.3798 116.426 53.2664 116.072 54.3491 116.072C55.3758 116.072 56.2204 116.426 56.8831 117.136C57.5551 117.845 57.8911 118.722 57.8911 119.768C57.8911 120.001 57.8678 120.248 57.8211 120.51H52.5431ZM52.5151 119.11H56.0851C55.9824 118.634 55.7678 118.279 55.4411 118.046C55.1238 117.812 54.7598 117.696 54.3491 117.696C53.8638 117.696 53.4624 117.822 53.1451 118.074C52.8278 118.316 52.6178 118.662 52.5151 119.11ZM8.33548 130.468H10.2675V140.268H8.33548V130.468ZM11.9976 140.268V130.048H13.8036V140.268H11.9976ZM15.4566 140.268V130.048H17.2626V140.268H15.4566ZM23.5355 133.268H25.3415V140.268H23.5355V139.484C23.0969 140.137 22.4015 140.464 21.4495 140.464C20.6842 140.464 20.0495 140.207 19.5455 139.694C19.0509 139.18 18.8035 138.471 18.8035 137.566V133.268H20.6095V137.342C20.6095 137.808 20.7355 138.168 20.9875 138.42C21.2395 138.662 21.5755 138.784 21.9955 138.784C22.4622 138.784 22.8355 138.639 23.1155 138.35C23.3955 138.06 23.5355 137.626 23.5355 137.048V133.268ZM28.6069 135.256C28.6069 135.442 28.7283 135.596 28.9709 135.718C29.2229 135.83 29.5263 135.932 29.8809 136.026C30.2356 136.11 30.5903 136.222 30.9449 136.362C31.2996 136.492 31.5983 136.716 31.8409 137.034C32.0929 137.351 32.2189 137.748 32.2189 138.224C32.2189 138.942 31.9483 139.498 31.4069 139.89C30.8749 140.272 30.2076 140.464 29.4049 140.464C27.9676 140.464 26.9876 139.908 26.4649 138.798L28.0329 137.916C28.2383 138.522 28.6956 138.826 29.4049 138.826C30.0489 138.826 30.3709 138.625 30.3709 138.224C30.3709 138.037 30.2449 137.888 29.9929 137.776C29.7503 137.654 29.4516 137.547 29.0969 137.454C28.7423 137.36 28.3876 137.244 28.0329 137.104C27.6783 136.964 27.3749 136.744 27.1229 136.446C26.8803 136.138 26.7589 135.755 26.7589 135.298C26.7589 134.607 27.0109 134.066 27.5149 133.674C28.0283 133.272 28.6629 133.072 29.4189 133.072C29.9883 133.072 30.5063 133.202 30.9729 133.464C31.4396 133.716 31.8083 134.08 32.0789 134.556L30.5389 135.396C30.3149 134.92 29.9416 134.682 29.4189 134.682C29.1856 134.682 28.9896 134.733 28.8309 134.836C28.6816 134.938 28.6069 135.078 28.6069 135.256ZM37.1793 135.004H35.5973V137.916C35.5973 138.158 35.658 138.336 35.7793 138.448C35.9006 138.56 36.078 138.625 36.3113 138.644C36.5446 138.653 36.834 138.648 37.1793 138.63V140.268C35.938 140.408 35.0606 140.291 34.5473 139.918C34.0433 139.544 33.7913 138.877 33.7913 137.916V135.004H32.5733V133.268H33.7913V131.854L35.5973 131.308V133.268H37.1793V135.004ZM40.368 134.472C40.536 134.024 40.8114 133.688 41.194 133.464C41.586 133.24 42.02 133.128 42.496 133.128V135.144C41.9454 135.078 41.4507 135.19 41.012 135.48C40.5827 135.769 40.368 136.25 40.368 136.922V140.268H38.562V133.268H40.368V134.472ZM48.6125 133.268H50.4185V140.268H48.6125V139.442C48.0712 140.123 47.3105 140.464 46.3305 140.464C45.3972 140.464 44.5945 140.109 43.9225 139.4C43.2598 138.681 42.9285 137.804 42.9285 136.768C42.9285 135.732 43.2598 134.859 43.9225 134.15C44.5945 133.431 45.3972 133.072 46.3305 133.072C47.3105 133.072 48.0712 133.412 48.6125 134.094V133.268ZM45.2805 138.196C45.6445 138.56 46.1065 138.742 46.6665 138.742C47.2265 138.742 47.6885 138.56 48.0525 138.196C48.4258 137.822 48.6125 137.346 48.6125 136.768C48.6125 136.189 48.4258 135.718 48.0525 135.354C47.6885 134.98 47.2265 134.794 46.6665 134.794C46.1065 134.794 45.6445 134.98 45.2805 135.354C44.9165 135.718 44.7345 136.189 44.7345 136.768C44.7345 137.346 44.9165 137.822 45.2805 138.196ZM56.0602 135.004H54.4782V137.916C54.4782 138.158 54.5388 138.336 54.6602 138.448C54.7815 138.56 54.9588 138.625 55.1922 138.644C55.4255 138.653 55.7148 138.648 56.0602 138.63V140.268C54.8188 140.408 53.9415 140.291 53.4282 139.918C52.9242 139.544 52.6722 138.877 52.6722 137.916V135.004H51.4542V133.268H52.6722V131.854L54.4782 131.308V133.268H56.0602V135.004ZM63.0788 139.4C62.3601 140.109 61.4828 140.464 60.4468 140.464C59.4108 140.464 58.5334 140.109 57.8148 139.4C57.1054 138.681 56.7508 137.804 56.7508 136.768C56.7508 135.732 57.1054 134.859 57.8148 134.15C58.5334 133.431 59.4108 133.072 60.4468 133.072C61.4828 133.072 62.3601 133.431 63.0788 134.15C63.7974 134.859 64.1568 135.732 64.1568 136.768C64.1568 137.804 63.7974 138.681 63.0788 139.4ZM59.0888 138.154C59.4528 138.518 59.9054 138.7 60.4468 138.7C60.9881 138.7 61.4408 138.518 61.8048 138.154C62.1688 137.79 62.3508 137.328 62.3508 136.768C62.3508 136.208 62.1688 135.746 61.8048 135.382C61.4408 135.018 60.9881 134.836 60.4468 134.836C59.9054 134.836 59.4528 135.018 59.0888 135.382C58.7341 135.746 58.5568 136.208 58.5568 136.768C58.5568 137.328 58.7341 137.79 59.0888 138.154ZM67.2333 134.472C67.4013 134.024 67.6766 133.688 68.0593 133.464C68.4513 133.24 68.8853 133.128 69.3613 133.128V135.144C68.8106 135.078 68.3159 135.19 67.8773 135.48C67.4479 135.769 67.2333 136.25 67.2333 136.922V140.268H65.4273V133.268H67.2333V134.472Z" fill="#828282"/>
<path d="M3.27588 4.45312H73.5859V85.458H3.27588V4.45312Z" fill="url(#paint0_radial_167_571)"/>
<path d="M3.27578 4.45367H73.5858V85.4586H3.27578V4.45367ZM0.0805664 89.2423H76.7963V0.669922H0.0805664V89.2423ZM50.3283 32.2496C50.3283 31.9404 50.4205 31.7949 50.7124 31.7949H55.7356C55.9967 31.7949 56.1196 31.904 56.1196 32.2496V62.1194C56.1196 62.4286 56.0582 62.5742 55.7356 62.5742H50.7738C50.4512 62.5742 50.359 62.3923 50.359 62.083V32.2496H50.3283ZM49.975 23.6453C49.975 21.2258 51.419 19.7888 53.2317 19.7888C55.1826 19.7888 56.4883 21.335 56.4883 23.6453C56.4883 26.1374 55.1211 27.5018 53.1702 27.5018C51.3268 27.52 49.975 26.1556 49.975 23.6453ZM35.5966 44.6923C34.7056 40.4902 32.5857 31.3401 31.7869 26.9015H31.7254C31.0495 31.3219 29.3597 38.8166 28.0233 44.6923H35.5966ZM26.7176 50.8227L24.1983 62.174C24.1368 62.4832 24.0446 62.556 23.722 62.556H19.0214C18.6988 62.556 18.6374 62.4468 18.6988 61.9921L27.7775 24.3729C27.9311 23.6998 28.0387 23.0813 28.1001 21.2258C28.1001 20.953 28.1923 20.8438 28.3612 20.8438H35.0743C35.3047 20.8438 35.3969 20.9166 35.4583 21.2258L45.6277 62.0648C45.6891 62.3741 45.6277 62.556 45.3665 62.556H40.0668C39.8056 62.556 39.652 62.4832 39.5906 62.2104L36.9637 50.8227H26.7176Z" fill="#FF7F18"/>
<path d="M12.3152 184.11C12.6015 183.162 13.9433 183.162 14.2297 184.11L15.7718 189.213C15.8993 189.635 16.2882 189.924 16.729 189.924H21.8654C22.8165 189.924 23.2305 191.127 22.4811 191.712L18.2036 195.054C17.8783 195.308 17.7426 195.736 17.862 196.131L19.4659 201.44C19.7482 202.374 18.6621 203.118 17.893 202.517L13.8881 199.388C13.5263 199.105 13.0185 199.105 12.6568 199.388L8.65184 202.517C7.88277 203.118 6.79663 202.374 7.07891 201.44L8.68281 196.131C8.80221 195.736 8.66652 195.308 8.34123 195.054L4.06375 191.712C3.31432 191.127 3.72837 189.924 4.67942 189.924H9.81581C10.2567 189.924 10.6455 189.635 10.7731 189.213L12.3152 184.11Z" fill="#070707"/>
<path d="M44.862 184.11C45.1484 183.162 46.4902 183.162 46.7766 184.11L48.3187 189.213C48.4462 189.635 48.835 189.924 49.2759 189.924H54.4123C55.3634 189.924 55.7774 191.127 55.028 191.712L50.7505 195.054C50.4252 195.308 50.2895 195.736 50.4089 196.131L52.0128 201.44C52.2951 202.374 51.2089 203.118 50.4399 202.517L46.435 199.388C46.0732 199.105 45.5654 199.105 45.2036 199.388L41.1987 202.517C40.4296 203.118 39.3435 202.374 39.6258 201.44L41.2297 196.131C41.3491 195.736 41.2134 195.308 40.8881 195.054L36.6106 191.712C35.8612 191.127 36.2752 189.924 37.2263 189.924H42.3627C42.8036 189.924 43.1924 189.635 43.3199 189.213L44.862 184.11Z" fill="#070707"/>
<path d="M77.4089 184.11C77.6953 183.162 79.0371 183.162 79.3234 184.11L80.8655 189.213C80.993 189.635 81.3819 189.924 81.8228 189.924H86.9592C87.9102 189.924 88.3243 191.127 87.5748 191.712L83.2974 195.054C82.9721 195.308 82.8364 195.736 82.9558 196.131L84.5597 201.44C84.842 202.374 83.7558 203.118 82.9868 202.517L78.9818 199.388C78.6201 199.105 78.1123 199.105 77.7505 199.388L73.7456 202.517C72.9765 203.118 71.8904 202.374 72.1727 201.44L73.7766 196.131C73.896 195.736 73.7603 195.308 73.435 195.054L69.1575 191.712C68.4081 191.127 68.8221 189.924 69.7732 189.924H74.9096C75.3504 189.924 75.7393 189.635 75.8668 189.213L77.4089 184.11Z" fill="#070707"/>
<path d="M109.956 184.11C110.242 183.162 111.584 183.162 111.87 184.11L113.412 189.213C113.54 189.635 113.929 189.924 114.37 189.924H119.506C120.457 189.924 120.871 191.127 120.122 191.712L115.844 195.054C115.519 195.308 115.383 195.736 115.503 196.131L117.107 201.44C117.389 202.374 116.303 203.118 115.534 202.517L111.529 199.388C111.167 199.105 110.659 199.105 110.297 199.388L106.292 202.517C105.523 203.118 104.437 202.374 104.72 201.44L106.323 196.131C106.443 195.736 106.307 195.308 105.982 195.054L101.704 191.712C100.955 191.127 101.369 189.924 102.32 189.924H107.456C107.897 189.924 108.286 189.635 108.414 189.213L109.956 184.11Z" fill="#E5E5E5"/>
<path d="M142.503 184.11C142.789 183.162 144.131 183.162 144.417 184.11L145.959 189.213C146.087 189.635 146.476 189.924 146.917 189.924H152.053C153.004 189.924 153.418 191.127 152.669 191.712L148.391 195.054C148.066 195.308 147.93 195.736 148.05 196.131L149.653 201.44C149.936 202.374 148.85 203.118 148.081 202.517L144.076 199.388C143.714 199.105 143.206 199.105 142.844 199.388L138.839 202.517C138.07 203.118 136.984 202.374 137.266 201.44L138.87 196.131C138.99 195.736 138.854 195.308 138.529 195.054L134.251 191.712C133.502 191.127 133.916 189.924 134.867 189.924H140.003C140.444 189.924 140.833 189.635 140.961 189.213L142.503 184.11Z" fill="#E5E5E5"/>
<defs>
<radialGradient id="paint0_radial_167_571" cx="0" cy="0" r="1" gradientUnits="userSpaceOnUse" gradientTransform="translate(26.4555 22.6304) scale(53.4379 61.2673)">
<stop stop-color="#423325" stop-opacity="0.98"/>
<stop offset="1" stop-color="#1C0A00"/>
</radialGradient>
</defs>
</svg>
