<svg width="174" height="207" viewBox="0 0 174 207" fill="none" xmlns="http://www.w3.org/2000/svg">
<path d="M23.4656 123.268L22.8776 121.504H18.9716L18.3836 123.268H16.2976L19.7276 113.468H22.1216L25.5656 123.268H23.4656ZM19.5876 119.698H22.2756L20.9316 115.694L19.5876 119.698ZM31.5478 113.468H33.3538V123.268H31.5478V122.442C31.0158 123.123 30.2598 123.464 29.2798 123.464C28.3371 123.464 27.5298 123.109 26.8578 122.4C26.1951 121.681 25.8638 120.804 25.8638 119.768C25.8638 118.732 26.1951 117.859 26.8578 117.15C27.5298 116.431 28.3371 116.072 29.2798 116.072C30.2598 116.072 31.0158 116.412 31.5478 117.094V113.468ZM28.2158 121.196C28.5891 121.56 29.0558 121.742 29.6158 121.742C30.1758 121.742 30.6378 121.56 31.0018 121.196C31.3658 120.822 31.5478 120.346 31.5478 119.768C31.5478 119.189 31.3658 118.718 31.0018 118.354C30.6378 117.98 30.1758 117.794 29.6158 117.794C29.0558 117.794 28.5891 117.98 28.2158 118.354C27.8518 118.718 27.6698 119.189 27.6698 119.768C27.6698 120.346 27.8518 120.822 28.2158 121.196ZM40.9695 122.4C40.2508 123.109 39.3735 123.464 38.3375 123.464C37.3015 123.464 36.4241 123.109 35.7055 122.4C34.9961 121.681 34.6415 120.804 34.6415 119.768C34.6415 118.732 34.9961 117.859 35.7055 117.15C36.4241 116.431 37.3015 116.072 38.3375 116.072C39.3735 116.072 40.2508 116.431 40.9695 117.15C41.6881 117.859 42.0475 118.732 42.0475 119.768C42.0475 120.804 41.6881 121.681 40.9695 122.4ZM36.9795 121.154C37.3435 121.518 37.7961 121.7 38.3375 121.7C38.8788 121.7 39.3315 121.518 39.6955 121.154C40.0595 120.79 40.2415 120.328 40.2415 119.768C40.2415 119.208 40.0595 118.746 39.6955 118.382C39.3315 118.018 38.8788 117.836 38.3375 117.836C37.7961 117.836 37.3435 118.018 36.9795 118.382C36.6248 118.746 36.4475 119.208 36.4475 119.768C36.4475 120.328 36.6248 120.79 36.9795 121.154ZM47.392 116.072C48.3346 116.072 49.1373 116.431 49.8 117.15C50.472 117.859 50.808 118.732 50.808 119.768C50.808 120.804 50.472 121.681 49.8 122.4C49.1373 123.109 48.3346 123.464 47.392 123.464C46.412 123.464 45.656 123.123 45.124 122.442V123.268H43.318V113.468H45.124V117.094C45.656 116.412 46.412 116.072 47.392 116.072ZM45.67 121.196C46.034 121.56 46.496 121.742 47.056 121.742C47.616 121.742 48.078 121.56 48.442 121.196C48.8153 120.822 49.002 120.346 49.002 119.768C49.002 119.189 48.8153 118.718 48.442 118.354C48.078 117.98 47.616 117.794 47.056 117.794C46.496 117.794 46.034 117.98 45.67 118.354C45.306 118.718 45.124 119.189 45.124 119.768C45.124 120.346 45.306 120.822 45.67 121.196ZM53.6076 120.51C53.8503 121.387 54.5083 121.826 55.5816 121.826C56.2723 121.826 56.795 121.592 57.1496 121.126L58.6056 121.966C57.915 122.964 56.8976 123.464 55.5536 123.464C54.3963 123.464 53.4676 123.114 52.7676 122.414C52.0676 121.714 51.7176 120.832 51.7176 119.768C51.7176 118.713 52.063 117.836 52.7536 117.136C53.4443 116.426 54.331 116.072 55.4136 116.072C56.4403 116.072 57.285 116.426 57.9476 117.136C58.6196 117.845 58.9556 118.722 58.9556 119.768C58.9556 120.001 58.9323 120.248 58.8856 120.51H53.6076ZM53.5796 119.11H57.1496C57.047 118.634 56.8323 118.279 56.5056 118.046C56.1883 117.812 55.8243 117.696 55.4136 117.696C54.9283 117.696 54.527 117.822 54.2096 118.074C53.8923 118.316 53.6823 118.662 53.5796 119.11ZM7.55842 140.268L6.97042 138.504H3.06442L2.47642 140.268H0.390419L3.82042 130.468H6.21442L9.65842 140.268H7.55842ZM3.68042 136.698H6.36842L5.02442 132.694L3.68042 136.698ZM14.0869 132.008C13.0976 131.933 12.6029 132.33 12.6029 133.198V133.268H14.0869V135.004H12.6029V140.268H10.7969V135.004H9.7889V133.268H10.7969V133.198C10.7969 132.208 11.0722 131.457 11.6229 130.944C12.1736 130.43 12.9949 130.206 14.0869 130.272V132.008ZM19.1374 135.004H17.5554V137.916C17.5554 138.158 17.6161 138.336 17.7374 138.448C17.8587 138.56 18.0361 138.625 18.2694 138.644C18.5027 138.653 18.7921 138.648 19.1374 138.63V140.268C17.8961 140.408 17.0187 140.291 16.5054 139.918C16.0014 139.544 15.7494 138.877 15.7494 137.916V135.004H14.5314V133.268H15.7494V131.854L17.5554 131.308V133.268H19.1374V135.004ZM21.718 137.51C21.9607 138.387 22.6187 138.826 23.692 138.826C24.3827 138.826 24.9053 138.592 25.26 138.126L26.716 138.966C26.0253 139.964 25.008 140.464 23.664 140.464C22.5067 140.464 21.578 140.114 20.878 139.414C20.178 138.714 19.828 137.832 19.828 136.768C19.828 135.713 20.1733 134.836 20.864 134.136C21.5547 133.426 22.4413 133.072 23.524 133.072C24.5507 133.072 25.3953 133.426 26.058 134.136C26.73 134.845 27.066 135.722 27.066 136.768C27.066 137.001 27.0427 137.248 26.996 137.51H21.718ZM21.69 136.11H25.26C25.1573 135.634 24.9427 135.279 24.616 135.046C24.2987 134.812 23.9347 134.696 23.524 134.696C23.0387 134.696 22.6373 134.822 22.32 135.074C22.0027 135.316 21.7927 135.662 21.69 136.11ZM30.1328 134.472C30.3008 134.024 30.5761 133.688 30.9588 133.464C31.3508 133.24 31.7848 133.128 32.2608 133.128V135.144C31.7101 135.078 31.2154 135.19 30.7768 135.48C30.3474 135.769 30.1328 136.25 30.1328 136.922V140.268H28.3268V133.268H30.1328V134.472ZM38.833 138.42H42.963V140.268H36.901V130.468H42.893V132.316H38.833V134.402H42.543V136.222H38.833V138.42ZM51.8848 131.868C50.8955 131.793 50.4008 132.19 50.4008 133.058V133.268H51.8848V135.004H50.4008V140.268H48.5948V135.004H46.5228V140.268H44.7168V135.004H43.7088V133.268H44.7168V133.198C44.7168 132.208 44.9922 131.457 45.5428 130.944C46.0935 130.43 46.9148 130.206 48.0068 130.272V132.008C47.0175 131.933 46.5228 132.33 46.5228 133.198V133.268H48.5948V133.058C48.5948 132.068 48.8702 131.317 49.4208 130.804C49.9808 130.29 50.8022 130.066 51.8848 130.132V131.868ZM53.9836 137.51C54.2263 138.387 54.8843 138.826 55.9576 138.826C56.6483 138.826 57.171 138.592 57.5256 138.126L58.9816 138.966C58.291 139.964 57.2736 140.464 55.9296 140.464C54.7723 140.464 53.8436 140.114 53.1436 139.414C52.4436 138.714 52.0936 137.832 52.0936 136.768C52.0936 135.713 52.439 134.836 53.1296 134.136C53.8203 133.426 54.707 133.072 55.7896 133.072C56.8163 133.072 57.661 133.426 58.3236 134.136C58.9956 134.845 59.3316 135.722 59.3316 136.768C59.3316 137.001 59.3083 137.248 59.2616 137.51H53.9836ZM53.9556 136.11H57.5256C57.423 135.634 57.2083 135.279 56.8816 135.046C56.5643 134.812 56.2003 134.696 55.7896 134.696C55.3043 134.696 54.903 134.822 54.5856 135.074C54.2683 135.316 54.0583 135.662 53.9556 136.11ZM63.8697 140.464C62.815 140.464 61.933 140.109 61.2237 139.4C60.5237 138.69 60.1737 137.813 60.1737 136.768C60.1737 135.722 60.5237 134.845 61.2237 134.136C61.933 133.426 62.815 133.072 63.8697 133.072C64.551 133.072 65.1717 133.235 65.7317 133.562C66.2917 133.888 66.7164 134.327 67.0057 134.878L65.4517 135.788C65.3117 135.498 65.097 135.27 64.8077 135.102C64.5277 134.934 64.2104 134.85 63.8557 134.85C63.3144 134.85 62.8664 135.032 62.5117 135.396C62.157 135.75 61.9797 136.208 61.9797 136.768C61.9797 137.318 62.157 137.776 62.5117 138.14C62.8664 138.494 63.3144 138.672 63.8557 138.672C64.2197 138.672 64.5417 138.592 64.8217 138.434C65.111 138.266 65.3257 138.037 65.4657 137.748L67.0337 138.644C66.7257 139.194 66.2917 139.638 65.7317 139.974C65.1717 140.3 64.551 140.464 63.8697 140.464ZM71.9929 135.004H70.4109V137.916C70.4109 138.158 70.4715 138.336 70.5929 138.448C70.7142 138.56 70.8915 138.625 71.1249 138.644C71.3582 138.653 71.6475 138.648 71.9929 138.63V140.268C70.7515 140.408 69.8742 140.291 69.3609 139.918C68.8569 139.544 68.6049 138.877 68.6049 137.916V135.004H67.3869V133.268H68.6049V131.854L70.4109 131.308V133.268H71.9929V135.004ZM74.7818 135.256C74.7818 135.442 74.9032 135.596 75.1458 135.718C75.3978 135.83 75.7012 135.932 76.0558 136.026C76.4105 136.11 76.7652 136.222 77.1198 136.362C77.4745 136.492 77.7732 136.716 78.0158 137.034C78.2678 137.351 78.3938 137.748 78.3938 138.224C78.3938 138.942 78.1232 139.498 77.5818 139.89C77.0498 140.272 76.3825 140.464 75.5798 140.464C74.1425 140.464 73.1625 139.908 72.6398 138.798L74.2078 137.916C74.4132 138.522 74.8705 138.826 75.5798 138.826C76.2238 138.826 76.5458 138.625 76.5458 138.224C76.5458 138.037 76.4198 137.888 76.1678 137.776C75.9252 137.654 75.6265 137.547 75.2718 137.454C74.9172 137.36 74.5625 137.244 74.2078 137.104C73.8532 136.964 73.5498 136.744 73.2978 136.446C73.0552 136.138 72.9338 135.755 72.9338 135.298C72.9338 134.607 73.1858 134.066 73.6898 133.674C74.2032 133.272 74.8378 133.072 75.5938 133.072C76.1632 133.072 76.6812 133.202 77.1478 133.464C77.6145 133.716 77.9832 134.08 78.2538 134.556L76.7138 135.396C76.4898 134.92 76.1165 134.682 75.5938 134.682C75.3605 134.682 75.1645 134.733 75.0058 134.836C74.8565 134.938 74.7818 135.078 74.7818 135.256Z" fill="#828282"/>
<path d="M4.34082 4.45312H74.651V85.458H4.34082V4.45312Z" fill="url(#paint0_radial_167_584)"/>
<path d="M4.34073 4.45367H74.6509V85.4586H4.34073V4.45367ZM1.14551 89.2423H77.8615V0.669922H1.14551V89.2423ZM55.4182 43.3644C57.0465 43.3644 57.6302 43.3644 57.7839 43.2916C57.7839 43.0188 57.8453 42.8369 57.8453 42.6549C57.8453 40.6175 57.0158 36.8338 53.6977 36.8338C50.6253 36.8338 49.3196 40.0172 48.997 43.3826H55.4182V43.3644ZM48.9356 48.5489C48.997 53.6606 51.0401 57.0987 55.9097 57.0987C57.7992 57.0987 59.4276 56.7894 61.1173 55.9344C61.3478 55.8253 61.5014 55.8617 61.5014 56.2073V60.937C61.5014 61.319 61.4092 61.5009 61.1788 61.701C59.489 62.6833 57.3691 63.1381 54.7576 63.1381C46.3241 63.1381 43.1596 55.7525 43.1596 47.5483C43.1596 38.6165 47.0614 31.3037 53.9281 31.3037C60.9023 31.3037 63.3294 38.2345 63.3294 43.8737C63.3294 45.6929 63.2372 47.1663 63.0683 47.894C63.0068 48.2032 62.9146 48.3124 62.6535 48.3851C62.0083 48.4943 60.1342 48.658 57.323 48.658H48.9509V48.5489H48.9356ZM31.792 44.6923C30.901 40.4902 28.7196 31.3401 27.9208 26.9015H27.8594C27.1835 31.3219 25.4323 38.8166 24.1265 44.6923H31.792ZM22.8208 50.8227L20.3015 62.1376C20.24 62.4468 20.1479 62.556 19.8253 62.556H15.1092C14.7866 62.556 14.7252 62.4468 14.7866 61.9921L23.8654 24.4093C24.019 23.7362 24.1265 23.1905 24.188 21.2986C24.188 21.0257 24.2801 20.9166 24.4491 20.9166H31.1621C31.3926 20.9166 31.4847 20.9894 31.5462 21.2986L41.7002 62.0648C41.7617 62.3741 41.7002 62.556 41.4391 62.556H36.17C35.9089 62.556 35.7553 62.4468 35.6938 62.174L33.067 50.8227H22.8208Z" fill="#D8A1FF"/>
<path d="M30.3723 184.11C30.6586 183.162 32.0005 183.162 32.2868 184.11L33.8289 189.213C33.9564 189.635 34.3453 189.924 34.7862 189.924H39.9226C40.8736 189.924 41.2877 191.127 40.5382 191.712L36.2607 195.054C35.9354 195.308 35.7998 195.736 35.9192 196.131L37.5231 201.44C37.8053 202.374 36.7192 203.118 35.9501 202.517L31.9452 199.388C31.5834 199.105 31.0757 199.105 30.7139 199.388L26.709 202.517C25.9399 203.118 24.8538 202.374 25.136 201.44L26.7399 196.131C26.8593 195.736 26.7236 195.308 26.3984 195.054L22.1209 191.712C21.3714 191.127 21.7855 189.924 22.7365 189.924H27.8729C28.3138 189.924 28.7027 189.635 28.8302 189.213L30.3723 184.11Z" fill="#070707"/>
<path d="M62.9192 184.11C63.2055 183.162 64.5473 183.162 64.8337 184.11L66.3758 189.213C66.5033 189.635 66.8922 189.924 67.333 189.924H72.4694C73.4205 189.924 73.8345 191.127 73.0851 191.712L68.8076 195.054C68.4823 195.308 68.3466 195.736 68.466 196.131L70.0699 201.44C70.3522 202.374 69.2661 203.118 68.497 202.517L64.4921 199.388C64.1303 199.105 63.6225 199.105 63.2608 199.388L59.2558 202.517C58.4868 203.118 57.4006 202.374 57.6829 201.44L59.2868 196.131C59.4062 195.736 59.2705 195.308 58.9452 195.054L54.6678 191.712C53.9183 191.127 54.3324 189.924 55.2834 189.924H60.4198C60.8607 189.924 61.2496 189.635 61.3771 189.213L62.9192 184.11Z" fill="#070707"/>
<path d="M95.466 184.11C95.7524 183.162 97.0942 183.162 97.3806 184.11L98.9227 189.213C99.0502 189.635 99.439 189.924 99.8799 189.924H105.016C105.967 189.924 106.381 191.127 105.632 191.712L101.354 195.054C101.029 195.308 100.894 195.736 101.013 196.131L102.617 201.44C102.899 202.374 101.813 203.118 101.044 202.517L97.039 199.388C96.6772 199.105 96.1694 199.105 95.8076 199.388L91.8027 202.517C91.0337 203.118 89.9475 202.374 90.2298 201.44L91.8337 196.131C91.9531 195.736 91.8174 195.308 91.4921 195.054L87.2146 191.712C86.4652 191.127 86.8792 189.924 87.8303 189.924H92.9667C93.4076 189.924 93.7964 189.635 93.9239 189.213L95.466 184.11Z" fill="#070707"/>
<path d="M128.013 184.11C128.299 183.162 129.641 183.162 129.927 184.11L131.47 189.213C131.597 189.635 131.986 189.924 132.427 189.924H137.563C138.514 189.924 138.928 191.127 138.179 191.712L133.901 195.054C133.576 195.308 133.44 195.736 133.56 196.131L135.164 201.44C135.446 202.374 134.36 203.118 133.591 202.517L129.586 199.388C129.224 199.105 128.716 199.105 128.355 199.388L124.35 202.517C123.581 203.118 122.494 202.374 122.777 201.44L124.381 196.131C124.5 195.736 124.364 195.308 124.039 195.054L119.762 191.712C119.012 191.127 119.426 189.924 120.377 189.924H125.514C125.954 189.924 126.343 189.635 126.471 189.213L128.013 184.11Z" fill="#070707"/>
<path d="M160.56 184.11C160.846 183.162 162.188 183.162 162.474 184.11L164.016 189.213C164.144 189.635 164.533 189.924 164.973 189.924H170.11C171.061 189.924 171.475 191.127 170.725 191.712L166.448 195.054C166.123 195.308 165.987 195.736 166.106 196.131L167.71 201.44C167.993 202.374 166.906 203.118 166.137 202.517L162.132 199.388C161.771 199.105 161.263 199.105 160.901 199.388L156.896 202.517C156.127 203.118 155.041 202.374 155.323 201.44L156.927 196.131C157.047 195.736 156.911 195.308 156.586 195.054L152.308 191.712C151.559 191.127 151.973 189.924 152.924 189.924H158.06C158.501 189.924 158.89 189.635 159.017 189.213L160.56 184.11Z" fill="#E5E5E5"/>
<defs>
<radialGradient id="paint0_radial_167_584" cx="0" cy="0" r="1" gradientUnits="userSpaceOnUse" gradientTransform="translate(27.5187 22.6143) scale(53.438 61.2673)">
<stop stop-color="#442F55" stop-opacity="0.98"/>
<stop offset="1" stop-color="#12002C"/>
</radialGradient>
</defs>
</svg>
