<svg width="51" height="90" viewBox="0 0 51 90" fill="none" xmlns="http://www.w3.org/2000/svg">
<path d="M13.4108 89.6612C20.3235 89.6612 25.9305 83.0214 25.9305 74.8355V60.0098H13.4108C6.4981 60.0098 0.891113 66.6495 0.891113 74.8355C0.891113 83.0214 6.4981 89.6612 13.4108 89.6612Z" fill="#0ACF83"/>
<path d="M0.891113 45.1655C0.891113 36.9796 6.4981 30.3398 13.4108 30.3398H25.9305V60.0094H13.4108C6.4981 59.9912 0.891113 53.3515 0.891113 45.1655Z" fill="#A259FF"/>
<path d="M0.891113 15.4956C0.891113 7.30965 6.4981 0.669922 13.4108 0.669922H25.9305V30.3395H13.4108C6.4981 30.3395 0.891113 23.6816 0.891113 15.4956Z" fill="#F24E1E"/>
<path d="M25.9458 0.669922H38.4655C45.3782 0.669922 50.9852 7.30965 50.9852 15.4956C50.9852 23.6816 45.3782 30.3213 38.4655 30.3213H25.9458V0.669922V0.669922Z" fill="#FF7262"/>
<path d="M50.9852 45.1655C50.9852 53.3515 45.3782 59.9913 38.4655 59.9913C31.5528 59.9913 25.9458 53.3515 25.9458 45.1655C25.9458 36.9796 31.5528 30.3398 38.4655 30.3398C45.3782 30.3398 50.9852 36.9796 50.9852 45.1655Z" fill="#1ABCFE"/>
</svg>
