<svg width="20" height="20" viewBox="0 0 20 20" fill="none" xmlns="http://www.w3.org/2000/svg">
<path d="M9.2595 1.10961C9.54584 0.161916 10.8877 0.161915 11.174 1.10961L12.7161 6.21342C12.8436 6.63545 13.2325 6.92418 13.6734 6.92418H18.8098C19.7608 6.92418 20.1749 8.12665 19.4254 8.71219L15.148 12.0542C14.8227 12.3084 14.687 12.7363 14.8064 13.1314L16.4103 18.4398C16.6925 19.3741 15.6064 20.1179 14.8373 19.517L10.8324 16.388C10.4706 16.1053 9.96287 16.1053 9.60109 16.388L5.59617 19.517C4.82711 20.1179 3.74097 19.3741 4.02325 18.4398L5.62715 13.1314C5.74655 12.7363 5.61086 12.3084 5.28556 12.0542L1.00808 8.71219C0.258651 8.12665 0.672703 6.92418 1.62375 6.92418H6.76014C7.20102 6.92418 7.58988 6.63545 7.7174 6.21342L9.2595 1.10961Z" fill="#070707"/>
</svg>
