<svg width="21" height="20" viewBox="0 0 21 20" fill="none" xmlns="http://www.w3.org/2000/svg">
<path d="M9.55955 1.10961C9.84589 0.161916 11.1877 0.161915 11.4741 1.10961L13.0162 6.21342C13.1437 6.63545 13.5325 6.92418 13.9734 6.92418H19.1098C20.0609 6.92418 20.4749 8.12665 19.7255 8.71219L15.448 12.0542C15.1227 12.3084 14.987 12.7363 15.1064 13.1314L16.7103 18.4398C16.9926 19.3741 15.9065 20.1179 15.1374 19.517L11.1325 16.388C10.7707 16.1053 10.2629 16.1053 9.90114 16.388L5.89622 19.517C5.12716 20.1179 4.04101 19.3741 4.3233 18.4398L5.9272 13.1314C6.0466 12.7363 5.9109 12.3084 5.58561 12.0542L1.30813 8.71219C0.5587 8.12665 0.972752 6.92418 1.9238 6.92418H7.06019C7.50107 6.92418 7.88993 6.63545 8.01745 6.21342L9.55955 1.10961Z" fill="#E5E5E5"/>
</svg>
